<?xml version="1.0" encoding="iso-8859-1"?>
<!-- Generator: Adobe Illustrator 22.1.0, SVG Export Plug-In . SVG Version: 6.00 Build 0)  -->
<svg xmlns="http://www.w3.org/2000/svg" xmlns:xlink="http://www.w3.org/1999/xlink" version="1.1" id="Layer_1_1_" x="0px" y="0px" viewBox="0 0 64 64" style="enable-background:new 0 0 64 64;" xml:space="preserve" width="512" height="512">
<g>
	<polygon style="fill:#F0BC5E;" points="11,18 11,27 11,34 21,34 21,27 33,27 33,18  "/>
	<path d="M59.346,24H59V3c0-1.103-0.897-2-2-2H3C1.897,1,1,1.897,1,3v38c0,1.103,0.897,2,2,2h34.842l0.294,0.504l1.729-1.008   l-6.717-11.515l2.135-3.941l7.854,13.463l1.729-1.008L40.492,32H49v-2h-9.675l-2.333-4h20.017l-2.333,4H51v2h2.508l-4.373,7.496   l1.729,1.008l7.854-13.463l2.135,3.941l-6.717,11.515l1.729,1.008l7.283-12.485L59.346,24z M3,41V3h54v21h-2V5H5v34h30.508l1.167,2   H3z M34.342,37H7V7h46v17H34.654l-3.802,7.019L34.342,37z"/>
	<path d="M35,9H9v6h26V9z M33,13H11v-2h22V13z"/>
	<rect x="11" y="17" width="22" height="2"/>
	<rect x="11" y="25" width="20" height="2"/>
	<rect x="11" y="21" width="10" height="2"/>
	<rect x="11" y="29" width="10" height="2"/>
	<rect x="11" y="33" width="10" height="2"/>
	<rect x="23" y="21" width="10" height="2"/>
	<path style="fill:#F0BC5E;" d="M47.978,21.476L44,20.062l-3.978,1.414l0.114-4.221l-2.574-3.347l4.05-1.193L44,9.231l2.388,3.483   l4.05,1.193l-2.574,3.347L47.978,21.476z"/>
	<path style="fill:#F0BC5E;" d="M47,63c-6.617,0-12-5.383-12-12s5.383-12,12-12s12,5.383,12,12S53.617,63,47,63z M47,44   c-3.86,0-7,3.14-7,7s3.14,7,7,7s7-3.14,7-7S50.86,44,47,44z"/>
	<path d="M53.401,55.786L51.8,54.587C52.585,53.538,53,52.298,53,51c0-3.309-2.691-6-6-6c-1.298,0-2.538,0.415-3.587,1.2   l-1.199-1.602C43.611,43.553,45.267,43,47,43c4.411,0,8,3.589,8,8C55,52.733,54.447,54.389,53.401,55.786z"/>
	<path d="M47,59c-4.411,0-8-3.589-8-8c0-1.733,0.553-3.389,1.599-4.786l1.602,1.199C41.415,48.462,41,49.702,41,51   c0,3.309,2.691,6,6,6c1.298,0,2.538-0.415,3.587-1.2l1.199,1.602C50.389,58.447,48.733,59,47,59z"/>
</g>
</svg>
