<svg height="511px" viewBox="0 -64 511.99926 511" width="511px" xmlns="http://www.w3.org/2000/svg"><path d="m95.996094 342.566406c0 4.355469-3.53125 7.886719-7.886719 7.886719s-7.886719-3.53125-7.886719-7.886719c0-4.355468 3.53125-7.886718 7.886719-7.886718s7.886719 3.53125 7.886719 7.886718zm0 0"/><path d="m345.832031 342.566406c0 4.355469-3.53125 7.886719-7.886719 7.886719-4.355468 0-7.886718-3.53125-7.886718-7.886719 0-4.355468 3.53125-7.886718 7.886718-7.886718 4.355469 0 7.886719 3.53125 7.886719 7.886718zm0 0"/><path d="m434.917969 342.566406c0 4.355469-3.53125 7.886719-7.886719 7.886719s-7.886719-3.53125-7.886719-7.886719c0-4.355468 3.53125-7.886718 7.886719-7.886718s7.886719 3.53125 7.886719 7.886718zm0 0"/><path d="m510.964844 325.277344-25.183594-52.328125c-7.015625-14.578125-22.003906-23.996094-38.179688-23.996094h-13.714843l-25.378907-49.675781 39.226563-30.824219c10.320313-8.109375 17.707031-19.597656 20.8125-32.351563l12.304687-50.609374c1.953126-8.035157.140626-16.371094-4.96875-22.875l-40.765624-51.875c-5.109376-6.503907-12.78125-10.234376-21.054688-10.234376l-52.082031-.007812c-.003907 0-.003907 0-.007813 0-13.121094 0-26.03125 4.464844-36.34375 12.570312l-105.371094 82.804688c-10.316406 8.109375-17.707031 19.601562-20.808593 32.351562l-12.304688 50.609376c-1.953125 8.035156-.140625 16.371093 4.964844 22.875l4.226563 5.375c-8.519532 6.84375-13.710938 17.28125-13.710938 28.515624v13.351563h-21.472656v-83.109375c0-11.058594-8.996094-20.054688-20.054688-20.054688h-78.503906c-34.515625 0-62.59375 28.078126-62.59375 62.59375v51.285157c0 4.109375 3.328125 7.4375 7.4375 7.4375s7.4375-3.328125 7.4375-7.4375v-23.054688h74.289062c15.300782 0 27.746094-12.445312 27.746094-27.746093v-48.203126h24.1875c2.855469 0 5.183594 2.324219 5.183594 5.179688v113.527344c0 2.660156-2.164062 4.820312-4.820312 4.820312h-61.214844c-24.625 0-45.414063 17.535156-50.105469 41.046875h-2.835937c-.199219 0-.398438.015625-.59375.03125h-6.652344c-2.859375 0-5.183594-2.324219-5.183594-5.183593v-26.210938c0-4.105469-3.328125-7.433594-7.4375-7.433594s-7.4375 3.328125-7.4375 7.4375v26.207032c0 11.058593 8.996094 20.058593 20.058594 20.058593h16.605468c.207032 0 .410157-.015625.617188-.03125h10.613281c-.050781.8125-.082031 1.628907-.082031 2.453125 0 22.222656 18.078125 40.300782 40.296875 40.300782 22.222656 0 40.296875-18.078126 40.296875-40.300782 0-.824218-.03125-1.640625-.082031-2.453125h48.203125c.71875 7.839844 7.324218 14.003907 15.351562 14.003907h31.269532c8.023437 0 14.628906-6.164063 15.351562-14.003907h59.226562c-.050781.8125-.082031 1.628907-.082031 2.453125 0 22.222656 18.078125 40.300782 40.296875 40.300782 22.222656 0 40.300782-18.078126 40.300782-40.300782 0-.824218-.035157-1.640625-.082032-2.453125h8.652344c-.050781.8125-.082031 1.628907-.082031 2.453125 0 22.222656 18.078125 40.300782 40.296875 40.300782 22.222656 0 40.300781-18.078126 40.300781-40.300782 0-.824218-.035156-1.640625-.082031-2.453125l34.371094.03125c3.589843 0 6.871093-1.816406 8.78125-4.851562 1.914062-3.039063 2.125-6.785157.566406-10.015625zm-408.929688-116.410156c0 7.097656-5.773437 12.871093-12.871094 12.871093h-74.289062v-13.355469c0-26.3125 21.40625-47.71875 47.71875-47.71875h39.441406zm370.34375 70.53125 22.078125 45.871093h-5.453125c-.199218-.015625-.394531-.03125-.597656-.03125h-2.171875c-.902344-.132812-1.699219-.707031-2.101563-1.542969l-19.523437-40.558593c-3.125-6.492188-9.800781-10.6875-17.003906-10.6875h-130.484375c-7.191406 0-13.660156 3.996093-16.878906 10.421875l-20.460938 40.863281c-.441406.882813-1.300781 1.429687-2.269531 1.503906h-8.125l23.144531-46.226562c4.691406-9.363281 14.113281-15.183594 24.585938-15.183594h130.484374c10.5 0 20.222657 6.113281 24.777344 15.570313zm-55.191406-30.445313h-71.890625l51.296875-40.308594zm-55.207031-233.582031 52.082031.011718c3.675781 0 7.085938 1.65625 9.359375 4.546876l40.765625 51.875c2.273438 2.894531 3.078125 6.601562 2.207031 10.171874l-12.304687 50.609376c-.523438 2.15625-1.222656 4.261718-2.0625 6.304687l-96.664063-123.003906c2.183594-.335938 4.390625-.515625 6.609375-.515625zm-160.382813 166.976562 12.304688-50.609375c.527344-2.15625 1.222656-4.261719 2.0625-6.304687l13.890625 17.671875c1.464843 1.867187 3.648437 2.84375 5.851562 2.84375 1.609375 0 3.230469-.519531 4.589844-1.589844 3.230469-2.539063 3.789063-7.214844 1.253906-10.445313l-17.085937-21.742187c1.535156-1.652344 3.199218-3.199219 4.984375-4.601563l105.367187-82.804687c1.789063-1.402344 3.679688-2.652344 5.65625-3.757813l103.058594 131.148438c-1.539062 1.652344-3.199219 3.199219-4.984375 4.601562l-105.371094 82.804688c-1.785156 1.402344-3.679687 2.652344-5.652343 3.757812l-64.675782-82.300781c-2.539062-3.230469-7.214844-3.789062-10.441406-1.253906-3.230469 2.539063-3.792969 7.214844-1.253906 10.445313l61.480468 78.230468c-2.183593.332032-4.390624.511719-6.609374.511719h-.007813l-52.082031-.007813c-3.675782 0-7.089844-1.660156-9.359375-4.550781l-40.765625-51.875c-2.273438-2.890625-3.078125-6.597656-2.210938-10.171875zm-4.097656 53.253906c0-6.617187 3.03125-12.765624 8.019531-16.828124l23.71875 30.179687h-31.738281zm87.390625 28.226563c-2.179687 2.570313-4.09375 5.410156-5.65625 8.523437l-.046875.097657h-118.035156v-8.621094zm-196.78125 104.164063c-14.019531 0-25.425781-11.40625-25.425781-25.425782 0-14.019531 11.40625-25.421875 25.425781-25.421875s25.425781 11.402344 25.425781 25.421875c0 14.019532-11.40625 25.425782-25.425781 25.425782zm0-65.722657c-16.019531 0-29.886719 9.398438-36.375 22.96875h-6.285156c4.375-15.171875 18.378906-26.171875 34.796875-26.171875h61.214844c8.027343 0 14.941406-4.835937 18.003906-11.746094h16.992187v37.917969h-51.96875c-6.492187-13.570312-20.355469-22.96875-36.378906-22.96875zm135.589844 12.394531v24.03125c0 .300782-.246094.550782-.550781.550782h-31.269532c-.300781 0-.550781-.25-.550781-.550782v-51.375h80.410156l-18.929687 37.808594c-.019532.035156-.027344.074219-.046875.109375h-14.191407v-10.574219c0-4.109374-3.328124-7.4375-7.433593-7.4375-4.109375 0-7.4375 3.328126-7.4375 7.4375zm114.246093 53.328126c-14.019531 0-25.425781-11.40625-25.425781-25.425782 0-14.019531 11.40625-25.421875 25.425781-25.421875 14.019532 0 25.421876 11.402344 25.421876 25.421875 0 14.019532-11.402344 25.425782-25.421876 25.425782zm89.085938 0c-14.019531 0-25.425781-11.40625-25.425781-25.425782 0-14.019531 11.40625-25.421875 25.425781-25.421875s25.425781 11.402344 25.425781 25.421875c0 14.019532-11.40625 25.425782-25.425781 25.425782zm0-65.722657c-16.019531 0-29.886719 9.398438-36.378906 22.96875h-16.332032c-6.492187-13.570312-20.355468-22.96875-36.378906-22.96875-16.019531 0-29.882812 9.398438-36.375 22.96875h-5.90625l17.882813-35.707031c.691406-1.382812 2.027343-2.207031 3.574219-2.207031h130.484374c1.503907 0 2.953126.910156 3.605469 2.265625l17.160157 35.652344h-4.960938c-6.488281-13.574219-20.351562-22.972657-36.375-22.972657zm0 0"/><path d="m102.238281 261.773438h-16.480469c-4.265624 0-7.726562-3.457032-7.726562-7.722657 0-4.269531 3.460938-7.726562 7.726562-7.726562h16.476563c4.269531 0 7.726563 3.457031 7.726563 7.726562 0 4.265625-3.457032 7.722657-7.722657 7.722657zm0 0"/></svg>