<svg id="_x33_0" enable-background="new 0 0 62 62" height="512" viewBox="0 0 62 62" width="512" xmlns="http://www.w3.org/2000/svg"><g><g><path d="m11.22 47c.48-.532.78-1.229.78-2 0-1.654-1.346-3-3-3s-3 1.346-3 3c0 .771.301 1.468.78 2z" fill="#f0bc5e"/></g><g><g><path d="m6 12c-3.309 0-6-2.691-6-6s2.691-6 6-6 6 2.691 6 6-2.691 6-6 6z" fill="#f0bc5e"/></g></g><g><g><path d="m15 16c-1.654 0-3-1.346-3-3s1.346-3 3-3 3 1.346 3 3-1.346 3-3 3z" fill="#f0bc5e"/></g></g><g><path d="m15.22 31c.48-.532.78-1.229.78-2 0-1.654-1.346-3-3-3s-3 1.346-3 3c0 .771.301 1.468.78 2z" fill="#f0bc5e"/></g><g><path d="m31.418 37.408c.783.375 1.657.592 2.582.592 3.309 0 6-2.691 6-6v-2h6.395c2.001 0 3.951-.465 5.725-1.345.272.78 1.008 1.345 1.88 1.345h6c1.103 0 2-.897 2-2v-16c0-1.103-.897-2-2-2h-6c-.752 0-1.401.423-1.743 1.039-2.547-1.963-5.645-3.039-8.914-3.039h-3.343v-2c1.103 0 2-.897 2-2v-2c0-1.103-.897-2-2-2h-12c-1.103 0-2 .897-2 2v2c0 1.103.897 2 2 2v6h-5c-1.654 0-3 1.346-3 3s1.346 3 3 3h1.184c-.112.314-.184.648-.184 1 0 .771.301 1.468.78 2-.294.326-.513.716-.642 1.147-.075-.018-.147-.049-.223-.063-.431-2.321-2.471-4.084-4.915-4.084-1.728 0-3.308.903-4.21 2.33-.566-.217-1.172-.33-1.79-.33-1.569 0-3.04.752-3.979 2-.006 0-.014 0-.021 0-2.757 0-5 2.243-5 5v.021c-.978.736-1.644 1.8-1.89 2.979h-.11c-1.103 0-2 .897-2 2v4c0 1.103.897 2 2 2v19c0 2.757 2.243 5 5 5h55v-1c0-2.93-1.776-5.491-4.472-6.528-.999-2.597-3.411-4.34-6.206-4.465-1.102-2.328-3.41-3.88-6-4-1.146-2.424-3.602-4.007-6.322-4.007-2.098 0-4.047.926-5.369 2.515-1.147-.465-2.413-.604-3.631-.432v-6.083c.554 0 1.056-.227 1.418-.592zm22.582-25.408h6v16h-6zm-20 24c-2.206 0-4-1.794-4-4v-2.184c1.161-.414 2-1.514 2-2.816 0-.771-.301-1.468-.78-2 .48-.532.78-1.229.78-2 0-.768-.29-1.469-.766-2 .476-.531.766-1.232.766-2 0-1.302-.839-2.402-2-2.816v-2.741c.591.345 1.268.557 2 .557h6v18c0 2.206-1.794 4-4 4zm-7-14h2c.552 0 1 .449 1 1s-.448 1-1 1h-2c-.552 0-1-.449-1-1s.448-1 1-1zm3 5c0 .551-.449 1-1.001 1-.267 0-.519-.104-.707-.293-.188-.188-.292-.439-.292-.707 0-.551.448-1 1-1s1 .449 1 1zm22-13.559v13.001c-1.695 1.017-3.619 1.558-5.605 1.558h-6.395v-12.093c1.479 1.322 3.402 2.093 5.472 2.093h.528v-2h-.528c-2.377 0-4.515-1.321-5.577-3.447l-.277-.553h-7.618c-1.103 0-2-.897-2-2h13.343c3.248 0 6.302 1.226 8.657 3.441zm-24-11.441h12v2h-12zm10 4v2h-8v-2zm-16 9c0-.551.448-1 1-1h5v2h-5c-.552 0-1-.449-1-1zm7 3c.552 0 1 .449 1 1s-.448 1-1 1h-2c-.552 0-1-.449-1-1s.448-1 1-1zm-23.457 10.397.588-.331-.103-.785c-.012-.092-.028-.184-.028-.281 0-1.654 1.346-3 3-3 .1 0 .195.017.292.03l.774.103.332-.59c.535-.952 1.532-1.543 2.602-1.543.603 0 1.183.178 1.679.514l1.075.729.43-1.227c.421-1.206 1.553-2.016 2.816-2.016 1.654 0 3 1.346 3 3v1h1c.459 0 .906.109 1.313.308.376.769 1.066 1.348 1.907 1.576-.139.346-.22.721-.22 1.115-.001.802.312 1.555.878 2.122.321.321.706.55 1.122.697v.182h-23.8c.243-.662.701-1.242 1.343-1.603zm-3.543 3.603h26c0 1.538.586 2.937 1.54 4h-27.54zm19.017 6c-.595.788-.972 1.75-1.013 2.802-1.846 1.062-3.004 3.032-3.004 5.198h-13v-8zm-17.017 19v-9h24v2.687c-1.435.685-2.624 1.843-3.322 3.321-3.374.154-6.125 2.71-6.598 5.993h-11.08c-1.654-.001-3-1.347-3-3.001zm29.453-10.354.825.466.51-.798c.926-1.449 2.5-2.314 4.212-2.314 2.117 0 4.012 1.346 4.714 3.348l.249.713.854-.052c.061-.004.121-.009.183-.009 2.117 0 4.012 1.346 4.714 3.348l.249.713.854-.052c.061-.004.121-.009.183-.009 2.219 0 4.142 1.426 4.784 3.548l.155.512.512.155c1.796.544 3.093 2.004 3.45 3.784h-39.8c.465-2.279 2.484-4 4.899-4 .062 0 .122.005.183.009l.854.052.249-.713c.702-2.001 2.597-3.347 4.714-3.347.28 0 .562.023.834.069l.332-1.973c-.383-.063-.774-.096-1.166-.096-.338 0-.672.025-1 .072v-3.944c1.16-.232 2.406-.073 3.453.518zm-5.453-.646h-9c0-1.605.955-3.05 2.433-3.68l.672-.287-.09-.906c-.006-.042-.015-.083-.015-.127 0-1.654 1.346-3 3-3h3z"/><path d="m37 56c.119 0 .235.017.351.038l.7.125.348-.621c.534-.951 1.531-1.542 2.601-1.542.86 0 1.681.37 2.25 1.016l1.5-1.323c-.949-1.076-2.315-1.693-3.75-1.693-1.569 0-3.04.752-3.978 2-2.237-.048-4.022 1.787-4.022 4h2c0-1.103.897-2 2-2z"/></g><g><g><path d="m52 42c-2.206 0-4-1.794-4-4s1.794-4 4-4 4 1.794 4 4-1.794 4-4 4z" fill="#f0bc5e"/></g></g><g><g><path d="m59 50c-1.654 0-3-1.346-3-3s1.346-3 3-3 3 1.346 3 3-1.346 3-3 3z" fill="#f0bc5e"/></g></g></g></svg>