<svg height="496pt" viewBox="0 -40 496 496" width="496pt" xmlns="http://www.w3.org/2000/svg"><path d="m282.761719 66.761719c-24.113281 12.269531-43.730469 31.886719-56 56l130.476562 130.476562c24.113281-12.269531 43.730469-31.886719 56-56zm0 0" fill="#f0bc5e"/><path d="m144 256h-104.839844l8.167969-81.59375c.808594-8.214844 7.65625-14.40625 15.910156-14.40625h64.761719c8.824219 0 16 7.175781 16 16zm0 0" fill="#f0bc5e"/><path d="m388.328125 142.433594 15.6875 3.132812 9.9375-49.679687-21.546875-21.542969-11.308594 11.3125 15.476563 15.488281zm0 0"/><path d="m419.320312 56-24.679687-24.679688-80.519531 16.105469c-54.007813 10.796875-95.890625 52.671875-106.6875 106.679688l-5.128906 25.628906c-5.761719-9.703125-15.382813-16.804687-26.839844-18.980469-2.351563-16.449218-15.113282-29.472656-31.457032-32.136718v-64.617188c0-8.824219 7.175782-16 16-16h16v-48h-16c-35.289062 0-64 28.710938-64 64v64h-37.414062c-19.1875 0-35.457031 14.351562-37.832031 33.390625l-20.464844 163.753906c-.191406 1.566407-.296875 3.144531-.296875 4.726563 0 21.023437 17.105469 38.128906 38.128906 38.128906h25.871094v-16h-25.871094c-10.066406 0-18.480468-6.792969-21.152344-16h59.28125v-16h-20.257812v-24c0-13.230469-10.769531-24-24-24h-8.9375l13.578125-108.625c1.382813-11.039062 10.824219-19.375 21.953125-19.375h79.277344c12.207031 0 22.128906 9.929688 22.128906 22.128906v153.871094h-12.265625v16h143.679687c-1.460937 5.160156-2.503906 10.496094-3.007812 16h-128.40625v16h168v-16h-23.527344c3.992188-35.945312 34.527344-64 71.527344-64s67.558594 28.046875 71.550781 64h-23.550781v16h40v-8c0-29.761719-14.886719-56.0625-37.558594-72h13.558594c22.054688 0 40-17.945312 40-40v-142.113281l16-32v-17.886719zm-387.320312 232c4.414062 0 8 3.59375 8 8v24h-22.9375l4-32zm80-224c0-26.472656 21.527344-48 48-48v16c-17.648438 0-32 14.351562-32 32v64h-16zm111.113281 93.246094c9.527344-47.652344 46.488281-84.605469 94.144531-94.132813l72.117188-14.425781 41.945312 41.945312-14.425781 72.128907c-9.527343 47.652343-46.488281 84.605469-94.140625 94.132812l-72.121094 14.425781-41.945312-41.945312zm-15.113281 94.074218 20.679688 20.679688h-20.679688zm-16-51.320312v72h-16v-94.527344c9.289062 3.3125 16 12.113282 16 22.527344zm105.710938 120h-121.710938v-32h149.558594c-11.695313 8.214844-21.277344 19.199219-27.847656 32zm142.289062-48h-8v-8c0-13.230469 10.769531-24 24-24h8v8c0 13.230469-10.769531 24-24 24zm24-169.886719v121.886719h-8c-22.054688 0-40 17.945312-40 40v8h-87.6875c52.824219-11.558594 93.632812-52.921875 104.273438-106.105469l16.109374-80.519531-13.375-13.375h43.734376zm0 0"/><path d="m312.964844 164.289062 11.3125-11.3125 11.316406 11.3125-11.316406 11.3125zm0 0"/><path d="m290.339844 141.65625 11.3125-11.3125 11.3125 11.3125-11.3125 11.3125zm0 0"/><path d="m335.597656 186.894531 11.3125-11.3125 10.742188 10.742188-11.316406 11.3125zm0 0"/><path d="m112 416c-30.871094 0-56-25.121094-56-56s25.128906-56 56-56 56 25.121094 56 56-25.128906 56-56 56zm0-72c-8.824219 0-16 7.175781-16 16s7.175781 16 16 16 16-7.175781 16-16-7.175781-16-16-16zm0 0" fill="#f0bc5e"/><path d="m376 416c-30.871094 0-56-25.121094-56-56s25.128906-56 56-56 56 25.121094 56 56-25.128906 56-56 56zm0-72c-8.824219 0-16 7.175781-16 16s7.175781 16 16 16 16-7.175781 16-16-7.175781-16-16-16zm0 0" fill="#f0bc5e"/><path d="m112 384c-13.230469 0-24-10.769531-24-24s10.769531-24 24-24 24 10.769531 24 24-10.769531 24-24 24zm0-32c-4.414062 0-8 3.59375-8 8s3.585938 8 8 8 8-3.59375 8-8-3.585938-8-8-8zm0 0"/><path d="m376 384c-13.230469 0-24-10.769531-24-24s10.769531-24 24-24 24 10.769531 24 24-10.769531 24-24 24zm0-32c-4.414062 0-8 3.59375-8 8s3.585938 8 8 8 8-3.59375 8-8-3.585938-8-8-8zm0 0"/></svg>