<svg height="496pt" viewBox="0 0 496 496" width="496pt" xmlns="http://www.w3.org/2000/svg"><g fill="#f0bc5e"><path d="m344 216h112v16h-112zm0 0"/><path d="m344 184h112v16h-112zm0 0"/><path d="m168 128-8-8h-16l-8 8 8 8-8 72 16 16 16-16-8-72zm0 0"/><path d="m120 296h-112l-5.128906 6.152344 41.855468 34.871094c5.410157 4.496093 12.25 6.976562 19.273438 6.976562s13.863281-2.480469 19.273438-6.976562l41.847656-34.871094zm0 0"/><path d="m336 104.648438-30.808594-24.648438h-65.191406c-8.824219 0-16-7.175781-16-16v-48c0-8.824219 7.175781-16 16-16h80c8.824219 0 16 7.175781 16 16zm0 0"/></g><path d="m217.703125 122.175781-33.703125-8.421875v-14.074218c9.792969-8.792969 16-21.503907 16-35.679688v-16c0-26.472656-21.527344-48-48-48s-48 21.527344-48 48v16c0 14.167969 6.207031 26.878906 16 35.679688v14.074218l-33.703125 8.429688c-17.839844 4.457031-30.296875 20.410156-30.296875 38.800781v127.015625h-56v96h88v112h128v-336h-16v88h-96v-88h-16v128h-16v-127.015625c0-11.03125 7.480469-20.609375 18.175781-23.289063l45.824219-11.449218v-17.046875c5.015625 1.785156 10.382812 2.800781 16 2.800781s10.984375-1.023438 16-2.800781v17.046875l45.824219 11.449218c10.695312 2.679688 18.175781 12.257813 18.175781 23.289063v135.015625h16v-135.015625c0-18.390625-12.457031-34.34375-30.296875-38.808594zm-201.703125 181.824219h96v64h-96zm88-40h96v216h-40v-184h-16v184h-40v-96h24v-96h-24zm16-200v-16c0-17.648438 14.351562-32 32-32s32 14.351562 32 32v16c0 17.648438-14.351562 32-32 32s-32-14.351562-32-32zm0 0"/><path d="m465.703125 122.175781-33.703125-8.421875v-14.074218c9.792969-8.792969 16-21.503907 16-35.679688v-16c0-26.472656-21.527344-48-48-48s-48 21.527344-48 48v16c0 14.167969 6.207031 26.878906 16 35.679688v14.074218l-33.703125 8.429688c-17.839844 4.457031-30.296875 20.410156-30.296875 38.800781v135.015625h16v-135.015625c0-11.03125 7.480469-20.609375 18.175781-23.289063l45.824219-11.449218v-17.046875c5.015625 1.785156 10.382812 2.800781 16 2.800781s10.984375-1.023438 16-2.800781v17.046875l45.824219 11.449218c10.695312 2.679688 18.175781 12.257813 18.175781 23.289063v135.015625h16v-135.015625c0-18.390625-12.457031-34.34375-30.296875-38.808594zm-97.703125-58.175781v-16c0-17.648438 14.351562-32 32-32s32 14.351562 32 32v16c0 17.648438-14.351562 32-32 32s-32-14.351562-32-32zm0 0"/><path d="m448 248h-96v-88h-16v336h128v-336h-16zm-40 232v-184h-16v184h-40v-216h96v216zm0 0"/><path d="m256 32h16v16h-16zm0 0"/><path d="m288 32h16v16h-16zm0 0"/></svg>